<?xml version="1.0" ?><svg viewBox="0 0 64 64" xmlns="http://www.w3.org/2000/svg"><title/><g data-name="Day 9" id="0e10c604-710e-44d7-bcb6-bcae4570b960"><polygon data-name="&lt;Path&gt;" fill="#999" id="b166b922-d48b-4306-9c47-a0778de9ced4" points="55 32 58 42 55 43 50 34 55 32"/><polygon data-name="&lt;Path&gt;" fill="none" id="a96d3d5d-68f7-4c3e-901a-757bfb3c0d4e" points="55 32 58 42 55 43 50 34 55 32" stroke="#001c63" stroke-linecap="round" stroke-linejoin="round" stroke-width="2"/><polygon data-name="&lt;Path&gt;" fill="#999" id="699bf78e-9009-4df6-86a5-dbc72d64ec03" points="34.5 35 33.5 43 30.5 43 29.5 35 34.5 35"/><polygon data-name="&lt;Path&gt;" fill="none" id="6a604421-f264-4ade-9017-091390b53cdf" points="34.5 35 33.5 43 30.5 43 29.5 35 34.5 35" stroke="#001c63" stroke-linecap="round" stroke-linejoin="round" stroke-width="2"/><circle cx="56.5" cy="44.5" data-name="&lt;Path&gt;" fill="#545454" id="e8047cb1-8c54-4f26-ae65-03fcd654c439" r="3.5"/><circle cx="56.5" cy="44.5" data-name="&lt;Path&gt;" fill="#adadad" id="6997d1dc-6058-4b2a-833a-f2d6a03b5ce6" r="1.25"/><circle cx="56.5" cy="44.5" data-name="&lt;Path&gt;" fill="none" id="71c65afd-d1e5-43f3-a88f-49af8e3599f9" r="3.5" stroke="#001c63" stroke-linecap="round" stroke-linejoin="round" stroke-width="2"/><polygon data-name="&lt;Path&gt;" fill="#999" id="54a6c9dd-605e-456f-a015-2c81a5dce9e2" points="9 32 6 42 9 43 14 34 9 32"/><polygon data-name="&lt;Path&gt;" fill="none" id="6ff44c20-0074-4bba-8152-3d3a48862cd6" points="9 32 6 42 9 43 14 34 9 32" stroke="#001c63" stroke-linecap="round" stroke-linejoin="round" stroke-width="2"/><path d="M60.5,28.94C60.5,33.39,47.74,37,32,37S3.5,33.39,3.5,28.94a3,3,0,0,1,.89-2C6,25.13,9.8,23.56,14.91,22.48a4.93,4.93,0,0,0,3.48-2.78c2-4.49,7.34-7.7,13.61-7.7s11.59,3.21,13.61,7.7a4.93,4.93,0,0,0,3.48,2.78c5.11,1.08,8.89,2.65,10.52,4.45A3,3,0,0,1,60.5,28.94Z" data-name="&lt;Path&gt;" fill="#6f83b8" id="9540a18e-e762-44e5-a2ff-66df3dfe46d0"/><path d="M57.25,28.68C52.49,31.25,43,33,32,33S11.51,31.25,6.75,28.68a2,2,0,0,1-.35-3.24,1.78,1.78,0,0,1,.36-.25,31.32,31.32,0,0,1,8.15-2.71,5,5,0,0,0,3.48-2.78c2-4.49,7.34-7.7,13.61-7.7s11.59,3.21,13.61,7.7a5,5,0,0,0,1.46,1.85,5.11,5.11,0,0,0,2,.93,31.32,31.32,0,0,1,8.15,2.71,1.78,1.78,0,0,1,.36.25A2,2,0,0,1,57.25,28.68Z" data-name="&lt;Path&gt;" fill="#bbbdc2" id="a89f349b-0c2e-4386-882f-57ceb3699d6d"/><path d="M57.6,25.44a1.8,1.8,0,0,1-.35.24C52.49,28.25,43,31,32,31S11.51,28.25,6.75,25.68a1.8,1.8,0,0,1-.35-.24,1.78,1.78,0,0,1,.36-.25,31.32,31.32,0,0,1,8.15-2.71,5,5,0,0,0,3.48-2.78c2-4.49,7.34-7.7,13.61-7.7s11.59,3.21,13.61,7.7a5,5,0,0,0,1.46,1.85,5.11,5.11,0,0,0,2,.93,31.32,31.32,0,0,1,8.15,2.71A1.78,1.78,0,0,1,57.6,25.44Z" data-name="&lt;Path&gt;" fill="#c5c7cc" id="5df4fd2a-a90d-46d6-b000-74441c966b5c"/><path d="M60.5,28.94C60.5,33.39,47.74,37,32,37S3.5,33.39,3.5,28.94a3,3,0,0,1,.89-2C6,25.13,9.8,23.56,14.91,22.48a4.93,4.93,0,0,0,3.48-2.78c2-4.49,7.34-7.7,13.61-7.7s11.59,3.21,13.61,7.7a4.93,4.93,0,0,0,3.48,2.78c5.11,1.08,8.89,2.65,10.52,4.45A3,3,0,0,1,60.5,28.94Z" data-name="&lt;Path&gt;" fill="none" id="f084df53-26a2-414f-94b8-81698e4707a4" stroke="#001c63" stroke-linecap="round" stroke-linejoin="round" stroke-width="2"/><path d="M57.25,28.68C52.49,31.25,43,33,32,33S11.51,31.25,6.75,28.68a2,2,0,0,1,0-3.49,31.32,31.32,0,0,1,8.15-2.71,5,5,0,0,0,3.48-2.78c2-4.49,7.34-7.7,13.61-7.7s11.59,3.21,13.61,7.7a5,5,0,0,0,1.46,1.85,5.11,5.11,0,0,0,2,.93,31.32,31.32,0,0,1,8.15,2.71A2,2,0,0,1,57.25,28.68Z" data-name="&lt;Path&gt;" fill="none" id="2efa3e27-b6bf-4ff7-8263-822af76bc546" stroke="#001c63" stroke-linecap="round" stroke-linejoin="round" stroke-width="2"/><path d="M47.07,21.55C42.59,26.6,32,26,32,26a30.91,30.91,0,0,1-9.48-1.28,15,15,0,0,1-5.68-3.11,4.91,4.91,0,0,0,1.55-1.91C20.3,15.45,25.17,12.35,31,12c.33,0,.66,0,1,0,6.27,0,11.59,3.21,13.61,7.7A5,5,0,0,0,47.07,21.55Z" data-name="&lt;Path&gt;" fill="#b9dbea" id="c0ab211d-15bf-4ceb-82e9-9acfe270adae"/><rect data-name="&lt;Rectangle&gt;" fill="#2d86ad" height="5.09" id="06245f2b-2504-4854-88c0-92050178f7e5" rx="2.55" ry="2.55" transform="translate(55.95 -8.95) rotate(90)" width="7" x="28.95" y="20.95"/><path d="M47.07,21.55C42.59,26.6,32,26,32,26c-8.24,0-12.73-2.18-15.16-4.39a4.91,4.91,0,0,0,1.55-1.91c2-4.49,7.34-7.7,13.61-7.7s11.59,3.21,13.61,7.7A5,5,0,0,0,47.07,21.55Z" data-name="&lt;Path&gt;" fill="none" id="f651a56c-cbf1-460a-a1e6-55c30d8aba2b" stroke="#001c63" stroke-linecap="round" stroke-linejoin="round" stroke-width="2"/><circle cx="7.5" cy="44.5" data-name="&lt;Path&gt;" fill="#545454" id="69bbd3b6-0fb9-4dd3-8b6c-9f04679379e5" r="3.5"/><circle cx="7.5" cy="44.5" data-name="&lt;Path&gt;" fill="#adadad" id="c960dadb-4389-4e89-970d-d038b38a699a" r="1.25"/><circle cx="7.5" cy="44.5" data-name="&lt;Path&gt;" fill="none" id="4d11e42d-9799-43b7-9ea6-f00d48204f6a" r="3.5" stroke="#001c63" stroke-linecap="round" stroke-linejoin="round" stroke-width="2"/><circle cx="32" cy="45.5" data-name="&lt;Path&gt;" fill="#545454" id="84a0fa51-046b-4e7b-acd7-b9012e6261e6" r="3.5"/><circle cx="32" cy="45.5" data-name="&lt;Path&gt;" fill="#adadad" id="24ce517b-2f13-444d-bcb5-d83a43b5104c" r="1.25"/><circle cx="32" cy="45.5" data-name="&lt;Path&gt;" fill="none" id="c6500f25-3a46-4a14-a5c2-3e5b41806e3d" r="3.5" stroke="#001c63" stroke-linecap="round" stroke-linejoin="round" stroke-width="2"/><path d="M22,20a17.29,17.29,0,0,1,5-4" data-name="&lt;Path&gt;" fill="none" id="7cfc30b5-6e66-4b96-83b0-66abff4e5737" stroke="#fff" stroke-linecap="round" stroke-linejoin="round" stroke-width="2"/><circle cx="30" cy="15" data-name="&lt;Path&gt;" fill="#fff" id="121b1075-509c-4553-8078-3202e5c0d5fe" r="1"/><ellipse cx="50.5" cy="27" data-name="&lt;Path&gt;" fill="#bbbdc2" id="6472be0f-03fd-4be7-8974-d5ce29d25cb5" rx="3.5" ry="2"/><ellipse cx="47.5" cy="29.14" data-name="&lt;Path&gt;" fill="#bbbdc2" id="3e4488fe-a4ae-41e3-8e4a-bfe0348ee62b" rx="1.5" ry="0.86"/><ellipse cx="43.5" cy="27.14" data-name="&lt;Path&gt;" fill="#bbbdc2" id="7e9298f9-dc15-4422-ba2a-b27d1b8a7ce1" rx="1.5" ry="0.86"/><ellipse cx="44.63" cy="28.64" data-name="&lt;Path&gt;" fill="#bbbdc2" id="04d7eb20-23b8-4358-beaf-9ad4680b4f47" rx="0.63" ry="0.36"/><ellipse cx="14.5" cy="26.5" data-name="&lt;Path&gt;" fill="#001c63" id="afba215d-13f6-4ccc-82c8-1f5710934bdd" rx="2.5" ry="1.5"/><ellipse cx="31.5" cy="29.5" data-name="&lt;Path&gt;" fill="#001c63" id="df99e5c4-4e5e-4ced-95ed-57773ef0b91b" rx="2.5" ry="1.5"/><ellipse cx="48.5" cy="26.5" data-name="&lt;Path&gt;" fill="#001c63" id="86f73389-0ff7-4174-a35c-6c141bd45307" rx="2.5" ry="1.5"/></g></svg>